<svg width="16" height="16" viewBox="0 0 16 16" fill="none" xmlns="http://www.w3.org/2000/svg">
<g opacity="0.5">
<path d="M11.9828 3.37682C12.6049 3.37682 13.1087 2.88342 13.1087 2.26916V1.10985C13.1087 0.495039 12.6054 0 11.9828 0C11.3602 0 10.8574 0.49449 10.8574 1.10985V2.26971C10.858 2.88342 11.3607 3.37682 11.9828 3.37682Z" fill="white"/>
<path d="M15.9827 1.91962H13.7164V2.48389C13.7164 3.41518 12.9488 4.17395 12.0024 4.17395C11.0548 4.17395 10.2889 3.41518 10.2889 2.48389V1.91962H5.71552V2.48389C5.71552 3.41518 4.94687 4.17395 4.00098 4.17395C3.05508 4.17395 2.28699 3.41573 2.28699 2.48389V1.91962L0 1.8916V15.9999H1.14377H14.8579L16 15.9966L15.9827 1.91962ZM14.8568 14.8764H1.14377V5.86345H14.8579V14.8764H14.8568Z" fill="white"/>
<path d="M3.9842 3.37682C4.60625 3.37682 5.11069 2.88342 5.11069 2.26916V1.10985C5.11069 0.49449 4.60625 0 3.9842 0C3.36214 0 2.85938 0.49449 2.85938 1.10985V2.26971C2.85938 2.88342 3.36159 3.37682 3.9842 3.37682Z" fill="white"/>
<path d="M7.51969 7.07275H5.71875V8.63974H7.51969V7.07275Z" fill="white"/>
<path d="M10.4335 7.07275H8.63086V8.63974H10.4335V7.07275Z" fill="white"/>
<path d="M13.131 7.07275H11.3301V8.63974H13.131V7.07275Z" fill="white"/>
<path d="M7.51969 9.6748H5.71875V11.2407H7.51969V9.6748Z" fill="white"/>
<path d="M10.4335 9.6748H8.63086V11.2407H10.4335V9.6748Z" fill="white"/>
<path d="M13.131 9.6748H11.3301V11.2407H13.131V9.6748Z" fill="white"/>
<path d="M7.51969 12.3286H5.71875V13.8945H7.51969V12.3286Z" fill="white"/>
<path d="M4.6592 9.6748H2.85938V11.2407H4.6592V9.6748Z" fill="white"/>
<path d="M4.6592 12.3286H2.85938V13.8945H4.6592V12.3286Z" fill="white"/>
<path d="M10.4335 12.3286H8.63086V13.8945H10.4335V12.3286Z" fill="white"/>
<path d="M13.131 12.3286H11.3301V13.8945H13.131V12.3286Z" fill="white"/>
</g>
</svg>
