<svg width="12" height="16" viewBox="0 0 12 16" fill="none" xmlns="http://www.w3.org/2000/svg">
<g opacity="0.5">
<path d="M6.21191 0.00333482C2.80106 -0.106167 0 2.49519 0 5.71972C0 9.37922 3.6865 12.035 5.75277 15.8544C5.85768 16.0484 6.15072 16.0486 6.25599 15.8547C8.12524 12.418 11.32 10.1135 11.9121 6.80266C12.5251 3.37656 9.85812 0.120438 6.21191 0.00333482ZM6.00409 8.71572C4.26719 8.71572 2.8591 7.37431 2.8591 5.71972C2.8591 4.06514 4.26722 2.72372 6.00409 2.72372C7.74099 2.72372 9.1491 4.06514 9.1491 5.71972C9.1491 7.37431 7.74099 8.71572 6.00409 8.71572Z" fill="white"/>
</g>
</svg>
