<svg width="10" height="10" viewBox="0 0 10 10" fill="none" xmlns="http://www.w3.org/2000/svg">
<path fill-rule="evenodd" clip-rule="evenodd" d="M8.06066 1.76784C7.50899 1.21617 6.49074 1.21645 5.78221 1.92498L4.99653 2.71065C4.80127 2.90591 4.48469 2.90591 4.28942 2.71065C4.09416 2.51539 4.09416 2.19881 4.28942 2.00354L5.0751 1.21787C6.10223 0.190737 7.75734 0.0503074 8.76777 1.06074C9.7782 2.07116 9.63777 3.72627 8.61063 4.7534L7.82496 5.53908C7.6297 5.73434 7.31311 5.73434 7.11785 5.53908C6.92259 5.34382 6.92259 5.02723 7.11785 4.83197L7.90353 4.0463C8.61206 3.33777 8.61233 2.31951 8.06066 1.76784ZM3.42518 3.57489C3.62045 3.77016 3.62045 4.08674 3.42518 4.282L1.85384 5.85335C1.1453 6.56188 1.14503 7.58014 1.6967 8.1318C2.24837 8.68347 3.26663 8.6832 3.97516 7.97467L5.5465 6.40332C5.74177 6.20806 6.05835 6.20806 6.25361 6.40332C6.44887 6.59858 6.44887 6.91517 6.25361 7.11043L4.68226 8.68178C3.65513 9.70891 2.00002 9.84934 0.989593 8.83891C-0.0208355 7.82848 0.119596 6.17337 1.14673 5.14624L2.71808 3.57489C2.91334 3.37963 3.22992 3.37963 3.42518 3.57489Z" fill="white"/>
<path fill-rule="evenodd" clip-rule="evenodd" d="M7.35355 2.64645C7.54882 2.84171 7.54882 3.15829 7.35355 3.35355L3.35355 7.35355C3.15829 7.54882 2.84171 7.54882 2.64645 7.35355C2.45118 7.15829 2.45118 6.84171 2.64645 6.64645L6.64645 2.64645C6.84171 2.45118 7.15829 2.45118 7.35355 2.64645Z" fill="white"/>
</svg>
