<svg width="12" height="12" viewBox="0 0 12 12" fill="none" xmlns="http://www.w3.org/2000/svg">
<g clip-path="url(#clip0_1_159)">
<path d="M11.5777 11.0349V11.0344H11.5804V7.05934C11.5804 5.1147 11.1618 3.6167 8.88834 3.6167C7.79544 3.6167 7.06202 4.21644 6.7626 4.78502H6.73099V3.79825H4.57544V11.0344H6.81996V7.45134C6.81996 6.50793 6.99879 5.59567 8.16712 5.59567C9.31828 5.59567 9.33544 6.67231 9.33544 7.51186V11.0349H11.5777Z" fill="white"/>
<path d="M0.920898 3.79834H3.16812V11.0345H0.920898V3.79834Z" fill="white"/>
<path d="M2.04398 0.193359C1.32546 0.193359 0.742432 0.776392 0.742432 1.49491C0.742432 2.21342 1.32546 2.80865 2.04398 2.80865C2.7625 2.80865 3.34553 2.21342 3.34553 1.49491C3.34508 0.776392 2.76204 0.193359 2.04398 0.193359V0.193359Z" fill="white"/>
</g>
<defs>
<clipPath id="clip0_1_159">
<rect width="10.8387" height="10.8387" fill="white" transform="translate(0.742432 0.193359)"/>
</clipPath>
</defs>
</svg>
