<svg width="16" height="16" viewBox="0 0 16 16" fill="none" xmlns="http://www.w3.org/2000/svg">
<g opacity="0.5">
<path d="M1.08447 9.27465L8.44739 2.04785L9.67463 3.25266L2.31172 10.4795L1.08447 9.27465Z" fill="white"/>
<path d="M0 11.5455L1.80627 10.7857L0.774337 9.77246L0 11.5455Z" fill="white"/>
<path d="M11.5148 1.44561C11.8535 1.11304 11.8535 0.573919 11.5148 0.241212C11.1713 -0.0804041 10.631 -0.0804041 10.2876 0.241212L9.67407 0.843411L10.9013 2.04809L11.5148 1.44561Z" fill="white"/>
<path d="M8.85449 1.64672L9.26362 1.24512L10.4906 2.44979L10.0816 2.85126L8.85449 1.64672Z" fill="white"/>
<path d="M14.5533 4.07576H15.9994V1.07031L0.790039 16H15.9994V14.8643H14.5533C14.3935 14.8643 14.264 14.7372 14.264 14.5804C14.264 14.4236 14.3935 14.2965 14.5533 14.2965H15.9994V13.1609H15.1317C14.972 13.1609 14.8425 13.0337 14.8425 12.877C14.8425 12.7202 14.972 12.593 15.1317 12.593H15.9994V11.4574H14.5533C14.3935 11.4574 14.264 11.3303 14.264 11.1735C14.264 11.0167 14.3935 10.8896 14.5533 10.8896H15.9994V9.75395H15.1317C14.972 9.75395 14.8425 9.62683 14.8425 9.47004C14.8425 9.31326 14.972 9.18613 15.1317 9.18613H15.9994V8.0505H14.5533C14.3935 8.0505 14.264 7.92337 14.264 7.76659C14.264 7.6098 14.3935 7.48268 14.5533 7.48268H15.9994V6.34704H15.1317C14.972 6.34704 14.8425 6.21992 14.8425 6.06313C14.8425 5.90634 14.972 5.77922 15.1317 5.77922H15.9994V4.64358H14.5533C14.3935 4.64358 14.264 4.51646 14.264 4.35967C14.264 4.20288 14.3935 4.07576 14.5533 4.07576ZM13.6856 13.4448C13.6856 13.6016 13.5561 13.7287 13.3964 13.7287H7.07442C6.95748 13.7287 6.85199 13.6595 6.80722 13.5533C6.76245 13.4473 6.78731 13.3251 6.86992 13.244L13.1919 7.03865C13.2746 6.95742 13.399 6.93316 13.5071 6.9771C13.6151 7.02105 13.6856 7.12446 13.6856 7.23938V13.4448Z" fill="white"/>
</g>
</svg>
