<svg width="52" height="23" viewBox="0 0 52 23" fill="none" xmlns="http://www.w3.org/2000/svg">
<path fill-rule="evenodd" clip-rule="evenodd" d="M3.23141 2.83708H4.70538V4.20527H3.23141V7.89217C3.23141 8.23783 3.2881 8.46823 3.40148 8.58349C3.51486 8.69869 3.74162 8.75632 4.08178 8.75632C4.19515 8.75632 4.30382 8.7515 4.40775 8.74192C4.51169 8.73227 4.61089 8.71793 4.70538 8.69869V10.2829C4.5353 10.3117 4.34633 10.3309 4.13846 10.3405C3.9306 10.3501 3.72746 10.3549 3.52903 10.3549C3.21723 10.3549 2.92197 10.3333 2.64323 10.2901C2.3645 10.2469 2.11884 10.1629 1.90624 10.0381C1.69365 9.91326 1.52594 9.73561 1.40311 9.50521C1.28028 9.27475 1.21886 8.97231 1.21886 8.5979V4.20527H0V2.83708H1.21886V0.604767H3.23141V2.83708ZM5.66911 0H7.68164V3.87414H7.72418C7.97927 3.44208 8.30525 3.12764 8.70212 2.93081C9.09893 2.73398 9.48631 2.63557 9.86426 2.63557C10.4029 2.63557 10.8446 2.70998 11.1894 2.8588C11.5343 3.00762 11.8059 3.21405 12.0043 3.47808C12.2028 3.74212 12.3422 4.06376 12.4225 4.44302C12.5028 4.82227 12.5429 5.24233 12.5429 5.70319V10.283H10.5304V6.07764C10.5304 5.46315 10.4359 5.0047 10.247 4.70226C10.058 4.39981 9.72254 4.24859 9.24066 4.24859C8.69263 4.24859 8.29582 4.41422 8.05016 4.74546C7.8045 5.07671 7.68164 5.62158 7.68164 6.38009V10.283H5.66911V0ZM19.0059 5.76079C18.9114 5.24232 18.7436 4.84866 18.5027 4.57983C18.2618 4.31099 17.8956 4.17658 17.4043 4.17658C17.0831 4.17658 16.8162 4.23178 16.6035 4.3422C16.391 4.45261 16.2209 4.58943 16.0934 4.75265C15.9658 4.91587 15.876 5.0887 15.824 5.27112C15.7721 5.45355 15.7414 5.61677 15.7319 5.76079H19.0059ZM15.732 7.05703C15.7603 7.71954 15.9257 8.19957 16.228 8.49724C16.5304 8.79486 16.965 8.9437 17.5319 8.9437C17.9382 8.9437 18.2878 8.84046 18.5807 8.63405C18.8736 8.42758 19.0531 8.20922 19.1193 7.97875H20.8909C20.6074 8.87166 20.1728 9.51017 19.587 9.89423C19.0012 10.2783 18.2925 10.4703 17.461 10.4703C16.8847 10.4703 16.365 10.3767 15.902 10.1895C15.4391 10.0022 15.0469 9.73581 14.7257 9.39015C14.4045 9.04449 14.1564 8.63168 13.9816 8.15158C13.8068 7.67149 13.7195 7.14342 13.7195 6.56736C13.7195 6.01048 13.8092 5.49201 13.9887 5.01194C14.1682 4.53187 14.4233 4.11662 14.7541 3.76617C15.0847 3.41572 15.4792 3.13968 15.9375 2.93805C16.3957 2.73643 16.9036 2.63561 17.461 2.63561C18.0846 2.63561 18.6279 2.75802 19.0909 3.00286C19.5539 3.2477 19.9342 3.57654 20.2318 3.9894C20.5295 4.40226 20.7445 4.87272 20.8767 5.4008C21.009 5.92887 21.0563 6.48094 21.0184 7.05703H15.732ZM26.5882 4.20538H25.3835V2.8372H26.5882V2.26111C26.5882 1.59862 26.7913 1.05615 27.1976 0.633688C27.6039 0.211227 28.218 0 29.0401 0C29.2196 0 29.3991 0.00720092 29.5786 0.021603C29.7582 0.0360051 29.9329 0.0480066 30.103 0.057608V1.58422C29.8668 1.55541 29.6211 1.54101 29.3661 1.54101C29.092 1.54101 28.8959 1.60582 28.7779 1.73544C28.6598 1.86506 28.6007 2.08349 28.6007 2.39073V2.8372H29.9897V4.20538H28.6007V10.283H26.5882V4.20538ZM31.2085 2.83731H33.2211V10.2831H31.2085V2.83731ZM33.2211 1.68503H31.2085V0H33.2211V1.68503ZM34.8086 2.83724H36.7219V4.21983H36.7503C36.8448 3.9894 36.9723 3.77577 37.133 3.57894C37.2936 3.38211 37.4778 3.21409 37.6857 3.07487C37.8936 2.93565 38.1156 2.82764 38.3518 2.75083C38.5881 2.67401 38.8337 2.63561 39.0888 2.63561C39.2211 2.63561 39.3675 2.65961 39.5281 2.70762V4.60868C39.4336 4.58948 39.3203 4.57268 39.188 4.55828C39.0557 4.54387 38.9281 4.53668 38.8054 4.53668C38.4368 4.53668 38.125 4.59908 37.8699 4.7239C37.6148 4.84872 37.4093 5.01914 37.2534 5.23517C37.0975 5.4512 36.9865 5.70323 36.9204 5.99128C36.8542 6.27932 36.8212 6.59136 36.8212 6.92743V10.283H34.8086V2.83724ZM41.8807 7.86355C41.8807 8.08437 41.9256 8.27399 42.0153 8.43241C42.1051 8.59083 42.2208 8.72044 42.3626 8.82129C42.5043 8.92208 42.6673 8.9965 42.8515 9.04449C43.0358 9.09254 43.2271 9.11653 43.4255 9.11653C43.5673 9.11653 43.7161 9.09974 43.872 9.0661C44.0279 9.03252 44.1696 8.97972 44.2972 8.90768C44.4247 8.8357 44.531 8.73967 44.616 8.61965C44.7011 8.49962 44.7436 8.34841 44.7436 8.16599C44.7436 7.85873 44.5428 7.62833 44.1413 7.47467C43.7397 7.32107 43.1799 7.16747 42.4618 7.01381C42.1688 6.94659 41.8831 6.86742 41.6043 6.77621C41.3256 6.685 41.0775 6.56496 40.8602 6.41613C40.6429 6.26731 40.4681 6.08009 40.3359 5.85446C40.2036 5.62883 40.1374 5.35279 40.1374 5.02635C40.1374 4.54627 40.2295 4.15262 40.4138 3.84538C40.5981 3.53813 40.8414 3.2957 41.1437 3.11808C41.446 2.94045 41.7862 2.81564 42.1642 2.74362C42.5421 2.67162 42.9295 2.63561 43.3263 2.63561C43.7232 2.63561 44.1082 2.67401 44.4814 2.75083C44.8546 2.82764 45.1877 2.95725 45.4806 3.13968C45.7735 3.32211 46.0168 3.56454 46.2105 3.86698C46.4042 4.16942 46.5199 4.55107 46.5577 5.01194H44.6444C44.616 4.61828 44.4696 4.35185 44.2051 4.21263C43.9405 4.07341 43.6287 4.0038 43.2696 4.0038C43.1562 4.0038 43.0334 4.011 42.9011 4.0254C42.7688 4.0398 42.6484 4.07101 42.5397 4.11902C42.4311 4.16703 42.3389 4.23663 42.2633 4.32785C42.1878 4.41906 42.15 4.54148 42.15 4.6951C42.15 4.87752 42.2161 5.02634 42.3484 5.14156C42.4806 5.25678 42.6531 5.35039 42.8657 5.4224C43.0783 5.49441 43.3216 5.55922 43.5956 5.61682C43.8696 5.67443 44.1483 5.73684 44.4318 5.80405C44.7247 5.87126 45.0105 5.95287 45.2893 6.04889C45.568 6.1449 45.816 6.27211 46.0333 6.43054C46.2506 6.58896 46.4255 6.78579 46.5577 7.02101C46.69 7.25624 46.7561 7.54671 46.7561 7.89237C46.7561 8.38198 46.6593 8.79248 46.4656 9.12373C46.2719 9.45498 46.0192 9.7214 45.7074 9.92305C45.3955 10.1246 45.0389 10.2663 44.6373 10.3479C44.2358 10.4295 43.8271 10.4703 43.4114 10.4703C42.9861 10.4703 42.5705 10.4271 42.1642 10.3407C41.7579 10.2543 41.3964 10.1102 41.0799 9.90864C40.7634 9.70699 40.5036 9.44057 40.3004 9.10932C40.0972 8.77807 39.9862 8.36281 39.9674 7.86355H41.8807ZM50.4837 2.83708H51.9577V4.20527H50.4837V7.89217C50.4837 8.23783 50.5404 8.46823 50.6538 8.58349C50.7672 8.69869 50.994 8.75632 51.334 8.75632C51.4475 8.75632 51.5561 8.7515 51.66 8.74192C51.764 8.73227 51.8632 8.71793 51.9577 8.69869V10.2829C51.7876 10.3117 51.5986 10.3309 51.3908 10.3405C51.1829 10.3501 50.9798 10.3549 50.7813 10.3549C50.4695 10.3549 50.1743 10.3333 49.8956 10.2901C49.6168 10.2469 49.3711 10.1629 49.1585 10.0381C48.946 9.91326 48.7782 9.73561 48.6554 9.50521C48.5326 9.27475 48.4712 8.97231 48.4712 8.5979V4.20527H47.2523V2.83708H48.4712V0.604767H50.4837V2.83708ZM3.23141 15.3668H4.70538V16.735H3.23141V20.4219C3.23141 20.7675 3.2881 20.998 3.40148 21.1132C3.51486 21.2284 3.74162 21.286 4.08178 21.286C4.19515 21.286 4.30382 21.2812 4.40775 21.2716C4.51169 21.262 4.61089 21.2476 4.70538 21.2284V22.8126C4.5353 22.8414 4.34633 22.8606 4.13846 22.8703C3.9306 22.8798 3.72746 22.8847 3.52903 22.8847C3.21723 22.8847 2.92197 22.8631 2.64323 22.8198C2.3645 22.7766 2.11884 22.6926 1.90624 22.5678C1.69365 22.443 1.52594 22.2654 1.40311 22.0349C1.28028 21.8045 1.21886 21.502 1.21886 21.1276V16.735H0V15.3668H1.21886V13.1345H3.23141V15.3668ZM5.66911 12.5297H7.68164V16.4038H7.72418C7.97927 15.9718 8.30525 15.6574 8.70212 15.4605C9.09893 15.2637 9.48631 15.1653 9.86426 15.1653C10.4029 15.1653 10.8446 15.2397 11.1894 15.3885C11.5343 15.5374 11.8059 15.7438 12.0043 16.0078C12.2028 16.2718 12.3422 16.5935 12.4225 16.9727C12.5028 17.352 12.5429 17.7721 12.5429 18.2329V22.8128H10.5304V18.6073C10.5304 17.9929 10.4359 17.5344 10.247 17.232C10.058 16.9295 9.72254 16.7783 9.24066 16.7783C8.69263 16.7783 8.29582 16.9439 8.05016 17.2752C7.8045 17.6064 7.68164 18.1513 7.68164 18.9098V22.8128H5.66911V12.5297ZM19.0059 18.2905C18.9114 17.7721 18.7436 17.3784 18.5027 17.1096C18.2618 16.8407 17.8956 16.7063 17.4043 16.7063C17.0831 16.7063 16.8162 16.7615 16.6035 16.8719C16.391 16.9823 16.2209 17.1191 16.0934 17.2824C15.9658 17.4456 15.876 17.6184 15.824 17.8008C15.7721 17.9833 15.7414 18.1465 15.7319 18.2905H19.0059ZM15.732 19.5867C15.7603 20.2493 15.9257 20.7293 16.228 21.027C16.5304 21.3246 16.965 21.4734 17.5319 21.4734C17.9382 21.4734 18.2878 21.3702 18.5807 21.1638C18.8736 20.9574 19.0531 20.7389 19.1193 20.5085H20.8909C20.6074 21.4014 20.1728 22.0399 19.587 22.4239C19.0012 22.808 18.2925 23 17.461 23C16.8847 23 16.365 22.9064 15.902 22.7192C15.4391 22.5319 15.0469 22.2655 14.7257 21.9199C14.4045 21.5742 14.1564 21.1614 13.9816 20.6813C13.8068 20.2012 13.7195 19.6731 13.7195 19.0971C13.7195 18.5402 13.8092 18.0218 13.9887 17.5417C14.1682 17.0616 14.4233 16.6463 14.7541 16.2959C15.0847 15.9454 15.4792 15.6694 15.9375 15.4678C16.3957 15.2661 16.9036 15.1653 17.461 15.1653C18.0846 15.1653 18.6279 15.2877 19.0909 15.5326C19.5539 15.7774 19.9342 16.1063 20.2318 16.5191C20.5295 16.932 20.7445 17.4024 20.8767 17.9305C21.009 18.4586 21.0563 19.0107 21.0184 19.5867H15.732ZM26.2057 12.5297H28.2182V22.8128H26.2057V12.5297ZM29.5079 17.6569C29.5363 17.1768 29.6543 16.7784 29.8622 16.4615C30.0701 16.1447 30.3346 15.8902 30.6559 15.6982C30.9772 15.5062 31.3385 15.3694 31.7401 15.2877C32.1417 15.2061 32.5456 15.1653 32.9519 15.1653C33.3204 15.1653 33.6936 15.1918 34.0715 15.2446C34.4495 15.2974 34.7944 15.4005 35.1062 15.5542C35.418 15.7078 35.6731 15.9214 35.8715 16.195C36.0699 16.4687 36.1691 16.8312 36.1691 17.2825V21.1566C36.1691 21.4926 36.188 21.8142 36.2258 22.1215C36.2636 22.4288 36.3297 22.6592 36.4242 22.8128H34.3833C34.3455 22.6976 34.3148 22.58 34.2912 22.46C34.2676 22.3399 34.251 22.2175 34.2416 22.0927C33.9204 22.4288 33.5424 22.664 33.1078 22.7984C32.6732 22.9328 32.2291 23 31.7755 23C31.426 23 31.1 22.9568 30.7976 22.8704C30.4953 22.784 30.2307 22.6496 30.004 22.4672C29.7772 22.2847 29.6 22.0543 29.4725 21.7758C29.3449 21.4974 29.2811 21.1661 29.2811 20.7821C29.2811 20.3596 29.3544 20.0116 29.5008 19.738C29.6473 19.4643 29.8362 19.2459 30.0677 19.0827C30.2992 18.9195 30.5638 18.797 30.8614 18.7154C31.159 18.6338 31.459 18.569 31.7614 18.521C32.0637 18.473 32.3614 18.4346 32.6542 18.4058C32.9472 18.377 33.207 18.3338 33.4337 18.2761C33.6605 18.2186 33.84 18.1346 33.9723 18.0241C34.1046 17.9137 34.166 17.7529 34.1566 17.5417C34.1566 17.3209 34.1212 17.1456 34.0503 17.016C33.9794 16.8864 33.8849 16.7856 33.7668 16.7135C33.6487 16.6416 33.5117 16.5935 33.3558 16.5695C33.1999 16.5455 33.0322 16.5335 32.8527 16.5335C32.4559 16.5335 32.1441 16.6199 31.9173 16.7928C31.6905 16.9656 31.5582 17.2536 31.5205 17.6569H29.5079ZM34.1565 19.1689C34.0715 19.2457 33.9652 19.3057 33.8376 19.3489C33.7101 19.3922 33.5731 19.4282 33.4267 19.4569C33.2802 19.4858 33.1266 19.5098 32.966 19.529C32.8054 19.5481 32.6448 19.5722 32.4842 19.601C32.333 19.6298 32.1842 19.6682 32.0377 19.7162C31.8912 19.7642 31.7637 19.829 31.655 19.9106C31.5464 19.9922 31.459 20.0955 31.3928 20.2203C31.3267 20.3451 31.2937 20.5035 31.2937 20.6955C31.2937 20.878 31.3267 21.0316 31.3928 21.1564C31.459 21.2812 31.5487 21.3796 31.6621 21.4517C31.7755 21.5236 31.9078 21.5741 32.059 21.6029C32.2101 21.6317 32.366 21.646 32.5267 21.646C32.9235 21.646 33.2306 21.5789 33.4479 21.4445C33.6652 21.31 33.8259 21.1492 33.9298 20.962C34.0337 20.7747 34.0975 20.5851 34.1211 20.3931C34.1448 20.2011 34.1565 20.0475 34.1565 19.9322V19.1689ZM39.0746 20.3933C39.0746 20.6141 39.1194 20.8037 39.2092 20.9621C39.2989 21.1205 39.4147 21.2502 39.5564 21.351C39.6982 21.4518 39.8611 21.5262 40.0454 21.5742C40.2297 21.6222 40.421 21.6462 40.6194 21.6462C40.7611 21.6462 40.9099 21.6295 41.0658 21.5958C41.2217 21.5622 41.3634 21.5094 41.491 21.4374C41.6186 21.3654 41.7249 21.2694 41.8099 21.1494C41.895 21.0293 41.9375 20.8781 41.9375 20.6957C41.9375 20.3884 41.7367 20.158 41.3351 20.0044C40.9335 19.8508 40.3737 19.6972 39.6556 19.5435C39.3627 19.4763 39.0769 19.3971 38.7982 19.3059C38.5194 19.2147 38.2714 19.0947 38.0541 18.9459C37.8368 18.797 37.662 18.6098 37.5297 18.3842C37.3974 18.1586 37.3313 17.8825 37.3313 17.5561C37.3313 17.076 37.4234 16.6823 37.6077 16.3751C37.7919 16.0679 38.0352 15.8254 38.3376 15.6478C38.64 15.4701 38.98 15.3454 39.358 15.2733C39.7359 15.2013 40.1233 15.1653 40.5202 15.1653C40.917 15.1653 41.3021 15.2037 41.6753 15.2805C42.0485 15.3573 42.3815 15.487 42.6745 15.6694C42.9673 15.8518 43.2107 16.0943 43.4043 16.3967C43.598 16.6991 43.7138 17.0808 43.7516 17.5417H41.8382C41.8099 17.148 41.6635 16.8815 41.3989 16.7423C41.1343 16.6032 40.8226 16.5335 40.4635 16.5335C40.3501 16.5335 40.2273 16.5407 40.095 16.5551C39.9627 16.5695 39.8422 16.6007 39.7336 16.6488C39.6249 16.6967 39.5328 16.7663 39.4572 16.8575C39.3816 16.9488 39.3438 17.0712 39.3438 17.2248C39.3438 17.4072 39.41 17.5561 39.5423 17.6713C39.6745 17.7865 39.847 17.8801 40.0596 17.9521C40.2721 18.0241 40.5155 18.0889 40.7895 18.1465C41.0635 18.2042 41.3422 18.2666 41.6257 18.3338C41.9186 18.401 42.2044 18.4826 42.4831 18.5786C42.7619 18.6746 43.0099 18.8018 43.2272 18.9603C43.4445 19.1187 43.6193 19.3155 43.7516 19.5507C43.8839 19.7859 43.95 20.0764 43.95 20.4221C43.95 20.9118 43.8532 21.3222 43.6595 21.6534C43.4657 21.9847 43.213 22.2511 42.9012 22.4528C42.5894 22.6543 42.2327 22.796 41.8312 22.8776C41.4296 22.9592 41.0209 23 40.6052 23C40.18 23 39.7643 22.9568 39.358 22.8704C38.9518 22.784 38.5903 22.64 38.2738 22.4384C37.9573 22.2367 37.6975 21.9703 37.4943 21.639C37.2911 21.3078 37.1801 20.8925 37.1612 20.3933H39.0746ZM47.4648 15.3668H48.9387V16.735H47.4648V20.4219C47.4648 20.7675 47.5215 20.998 47.6349 21.1132C47.7483 21.2284 47.9751 21.286 48.3151 21.286C48.4286 21.286 48.5372 21.2812 48.6411 21.2716C48.7451 21.262 48.8443 21.2476 48.9387 21.2284V22.8126C48.7687 22.8414 48.5797 22.8606 48.3719 22.8703C48.164 22.8798 47.9609 22.8847 47.7624 22.8847C47.4506 22.8847 47.1553 22.8631 46.8767 22.8198C46.5979 22.7766 46.3522 22.6926 46.1396 22.5678C45.9271 22.443 45.7593 22.2654 45.6365 22.0349C45.5137 21.8045 45.4523 21.502 45.4523 21.1276V16.735H44.2334V15.3668H45.4523V13.1345H47.4648V15.3668ZM49.7748 20.595H52V22.8129H49.7748V20.595Z" fill="#B6B6B6"/>
</svg>
