<svg width="11" height="10" viewBox="0 0 11 10" fill="none" xmlns="http://www.w3.org/2000/svg">
<path id="twi_red copy" fill-rule="evenodd" clip-rule="evenodd" d="M0.741943 8.29178C1.6558 8.90228 2.74076 9.25783 3.90723 9.25783C7.70558 9.25783 9.78239 5.98125 9.78239 3.14005C9.78239 3.04691 9.78038 2.95483 9.77636 2.86275C10.1799 2.55936 10.5302 2.18093 10.8065 1.7498C10.4366 1.92118 10.0385 2.03615 9.62086 2.08725C10.0471 1.82272 10.3737 1.4001 10.5287 0.898715C10.1296 1.14462 9.68729 1.32346 9.21727 1.4198C8.84086 1.00251 8.30392 0.741699 7.71011 0.741699C6.5698 0.741699 5.64487 1.70349 5.64487 2.89042C5.64487 3.05968 5.66349 3.22309 5.69872 3.38063C3.98272 3.29122 2.46046 2.43534 1.44294 1.13451C1.2653 1.4528 1.16314 1.82112 1.16314 2.21552C1.16314 2.96122 1.52748 3.61962 2.08153 4.00497C1.74286 3.99486 1.42482 3.89746 1.14603 3.73618C1.14603 3.74523 1.14603 3.75428 1.14603 3.76333C1.14603 4.80442 1.8586 5.67413 2.80215 5.8716C2.62954 5.9211 2.44687 5.94665 2.25867 5.94665C2.12531 5.94665 1.99598 5.93388 1.87018 5.90833C2.13236 6.76313 2.89525 7.38481 3.79854 7.40131C3.09201 7.97828 2.20281 8.32105 1.2346 8.32105C1.06803 8.32105 0.903982 8.31254 0.741943 8.29178Z" fill="white"/>
</svg>
