<svg width="16" height="16" fill="none" xmlns="http://www.w3.org/2000/svg"><path d="M1.084 9.275l7.363-7.227 1.228 1.205-7.363 7.226-1.228-1.204zM0 11.546l1.806-.76L.774 9.772 0 11.546zm11.515-10.1a.84.84 0 000-1.205.901.901 0 00-1.227 0l-.614.602 1.227 1.205.614-.602zm-2.661.201l.41-.402L10.49 2.45l-.41.401-1.227-1.204zm5.699 2.429H16V1.07L.79 16H16v-1.136h-1.447a.287.287 0 01-.289-.284c0-.156.13-.284.29-.284h1.445v-1.135h-.867a.287.287 0 01-.29-.284c0-.157.13-.284.29-.284h.867v-1.136h-1.446a.287.287 0 01-.289-.284c0-.156.13-.283.29-.283h1.445V9.754h-.867a.287.287 0 01-.29-.284c0-.157.13-.284.29-.284h.867V8.05h-1.446a.287.287 0 01-.289-.283c0-.157.13-.284.29-.284h1.445V6.347h-.867a.287.287 0 01-.29-.284c0-.157.13-.284.29-.284h.867V4.644h-1.446a.287.287 0 01-.289-.284c0-.157.13-.284.29-.284zm-.867 9.369c0 .157-.13.284-.29.284H7.074a.29.29 0 01-.267-.176.28.28 0 01.063-.309l6.322-6.205a.293.293 0 01.315-.062.284.284 0 01.179.262v6.206z" opacity=".5" fill="#fff"/></svg>