<svg width="16" height="16" fill="none" xmlns="http://www.w3.org/2000/svg"><g opacity=".5" fill="#fff"><path d="M11.983 3.377c.622 0 1.126-.494 1.126-1.108V1.11c0-.614-.504-1.11-1.126-1.11-.623 0-1.126.494-1.126 1.11v1.16a1.116 1.116 0 001.126 1.107z"/><path d="M15.983 1.92h-2.267v.564c0 .931-.767 1.69-1.714 1.69a1.702 1.702 0 01-1.713-1.69V1.92H5.716v.564c0 .931-.77 1.69-1.715 1.69-.946 0-1.714-.758-1.714-1.69V1.92L0 1.892V16h14.858L16 15.997 15.983 1.92zm-1.126 12.956H1.144V5.863h13.714v9.013h-.001z"/><path d="M3.984 3.377c.622 0 1.127-.494 1.127-1.108V1.11C5.11.495 4.606 0 3.984 0S2.86.494 2.86 1.11v1.16c0 .613.503 1.107 1.125 1.107zM7.52 7.073H5.719V8.64h1.8V7.073zm2.914 0H8.63V8.64h1.803V7.073zm2.697 0h-1.8V8.64h1.8V7.073zM7.52 9.675H5.719v1.566h1.8V9.675zm2.914 0H8.63v1.566h1.803V9.675zm2.697 0h-1.8v1.566h1.8V9.675zM7.52 12.329H5.719v1.566h1.8v-1.566zM4.66 9.675h-1.8v1.566h1.8V9.675zm0 2.654h-1.8v1.566h1.8v-1.566zm5.774 0H8.63v1.566h1.803v-1.566zm2.697 0h-1.8v1.566h1.8v-1.566z"/></g></svg>