<?xml version="1.0" encoding="utf-8"?><svg viewBox="0 0 52 25" xmlns="http://www.w3.org/2000/svg" xmlns:xlink="http://www.w3.org/1999/xlink"><style>:root>svg{display:none}:root>svg:target{display:block}</style><svg fill="none" viewBox="0 0 20 24" id="Exit" xmlns="http://www.w3.org/2000/svg"><path d="M10 15.386c.44 0 .81-.37.81-.8V4.056l-.062-1.539.688.728 1.558 1.661a.749.749 0 00.554.246c.42 0 .748-.307.748-.728 0-.215-.092-.38-.246-.533L10.584.548C10.38.343 10.206.271 10 .271c-.215 0-.39.072-.595.277L5.94 3.891c-.153.154-.246.318-.246.533 0 .42.308.728.739.728a.77.77 0 00.564-.246l1.558-1.66.687-.729-.061 1.538v10.53c0 .432.38.8.82.8zm-5.886 8.029h11.762c2.143 0 3.22-1.067 3.22-3.18V10.003c0-2.112-1.077-3.178-3.22-3.178h-2.861v1.65h2.83c1.015 0 1.6.554 1.6 1.62v10.05c0 1.066-.585 1.62-1.6 1.62H4.135c-1.026 0-1.59-.554-1.59-1.62v-10.05c0-1.066.564-1.62 1.59-1.62h2.84v-1.65h-2.86c-2.144 0-3.22 1.066-3.22 3.178v10.234c0 2.112 1.076 3.179 3.22 3.179z" fill="#2E7CF6"/></svg><svg fill="none" viewBox="0 0 5 10" id="Facebook" xmlns="http://www.w3.org/2000/svg"><path d="M4.71.806v1.347H3.87c-.665 0-.79.303-.79.734v.971h1.58L4.45 5.371H3.081v3.887H1.433V5.37H.064V3.858h1.369V2.74c0-1.292.838-1.998 2.053-1.998.578 0 1.08.036 1.224.064z" fill="#fff"/></svg><svg fill="none" viewBox="0 0 10 10" id="Group" xmlns="http://www.w3.org/2000/svg"><path fill-rule="evenodd" clip-rule="evenodd" d="M8.06 1.768c-.551-.552-1.57-.552-2.278.157l-.785.786a.5.5 0 01-.708-.707l.786-.786C6.102.19 7.757.05 8.768 1.06c1.01 1.01.87 2.665-.157 3.692l-.786.786a.5.5 0 01-.707-.707l.786-.786c.708-.708.708-1.726.157-2.278zM3.426 3.575a.5.5 0 010 .707L1.854 5.853c-.709.709-.709 1.727-.157 2.279.551.551 1.57.551 2.278-.157l1.571-1.572a.5.5 0 01.708.707L4.682 8.682C3.655 9.709 2 9.849.99 8.839c-1.01-1.01-.87-2.666.157-3.693l1.571-1.571a.5.5 0 01.707 0z" fill="#fff"/><path fill-rule="evenodd" clip-rule="evenodd" d="M7.354 2.646a.5.5 0 010 .708l-4 4a.5.5 0 11-.708-.708l4-4a.5.5 0 01.708 0z" fill="#fff"/></svg><svg fill="none" viewBox="0 0 25 25" id="Group_3606" xmlns="http://www.w3.org/2000/svg"><circle opacity=".32" cx="12.935" cy="12.242" r="11.5" stroke="#fff"/><g clip-path="url(#adclip0_1_13538)" stroke="#fff" stroke-linecap="round" stroke-linejoin="round"><path d="M12.643 9.357l.786-.786c.867-.867 2.204-.938 2.985-.157.781.781.71 2.118-.157 2.986l-.786.785m-1.57 1.572l-1.572 1.571c-.868.868-2.205.938-2.986.157-.78-.78-.71-2.117.157-2.985l1.572-1.572M11 14l4-4"/></g><defs><clipPath id="adclip0_1_13538"><path fill="#fff" transform="translate(8 7)" d="M0 0h10v10H0z"/></clipPath></defs></svg><svg fill="none" viewBox="0 0 9 9" id="Plus" xmlns="http://www.w3.org/2000/svg"><path fill="#3A3E4B" d="M0 4h9v1H0z"/><path fill="#3A3E4B" d="M4 0h1v9H4z"/></svg><svg fill="none" viewBox="0 0 14 14" id="arrow-left" xmlns="http://www.w3.org/2000/svg"><g opacity=".5" stroke="#080808"><path d="M11.667 7H2.333M5.833 3.5L2.333 7l3.5 3.5"/></g></svg><svg fill="none" viewBox="0 0 22 19" id="book" xmlns="http://www.w3.org/2000/svg"><path d="M10.99 2.378C10.21 1.394 8.272.522 6.109.522 3.269.522.972 1.988.408 3.362v14.325c0 .78.502 1.077 1.066 1.077.441 0 .708-.134.984-.349.585-.502 1.764-1.18 3.65-1.18 1.898 0 3.22.657 3.733 1.119.267.215.585.41 1.149.41.564 0 .882-.216 1.148-.41.554-.431 1.846-1.118 3.733-1.118 1.897 0 3.076.687 3.66 1.179.277.215.534.349.974.349.564 0 1.077-.298 1.077-1.077V3.362c-.564-1.374-2.871-2.84-5.711-2.84-2.154 0-4.092.872-4.881 1.856zM2.059 3.854C2.294 3.22 3.78 2.07 6.109 2.07c2.338 0 3.855 1.159 4.06 1.784v12.972c-.974-.728-2.46-1.139-4.06-1.139-1.59 0-3.076.41-4.05 1.18V3.854zm17.872 0v13.013c-.984-.77-2.46-1.18-4.06-1.18-1.6 0-3.077.41-4.05 1.139V3.854c.204-.625 1.722-1.784 4.05-1.784 2.338 0 3.824 1.149 4.06 1.784z" fill="#2E7CF6"/></svg><svg fill="none" viewBox="0 0 16 16" id="calc" xmlns="http://www.w3.org/2000/svg"><g opacity=".5" fill="#fff"><path d="M11.983 3.377c.622 0 1.126-.494 1.126-1.108V1.11C13.109.496 12.605 0 11.983 0c-.623 0-1.126.494-1.126 1.11v1.16c.001.613.504 1.107 1.126 1.107z"/><path d="M15.983 1.92h-2.267v.564c0 .931-.767 1.69-1.714 1.69a1.702 1.702 0 01-1.713-1.69V1.92H5.716v.564c0 .931-.77 1.69-1.715 1.69-.946 0-1.714-.758-1.714-1.69V1.92L0 1.892V16h14.858L16 15.997 15.983 1.92zm-1.126 12.956H1.144V5.863h13.714v9.013h-.001z"/><path d="M3.984 3.377c.622 0 1.127-.494 1.127-1.108V1.11C5.11.495 4.606 0 3.984 0S2.86.494 2.86 1.11v1.16c0 .613.503 1.107 1.125 1.107zM7.52 7.073H5.719V8.64h1.8V7.073zM10.434 7.073H8.63V8.64h1.803V7.073zM13.131 7.073h-1.8V8.64h1.8V7.073zM7.52 9.675H5.719v1.566h1.8V9.675zM10.434 9.675H8.63v1.566h1.803V9.675zM13.131 9.675h-1.8v1.566h1.8V9.675zM7.52 12.329H5.719v1.566h1.8v-1.566zM4.66 9.675h-1.8v1.566h1.8V9.675zM4.66 12.329h-1.8v1.566h1.8v-1.566zM10.434 12.329H8.63v1.566h1.803v-1.566zM13.131 12.329h-1.8v1.566h1.8v-1.566z"/></g></svg><svg fill="none" viewBox="0 0 16 16" id="criss-cross" xmlns="http://www.w3.org/2000/svg"><path fill="#fff" d="M0 15.334L15.333 0 16 .667.667 16z"/><path fill="#fff" d="M.667 0l15.332 15.333-.666.667L0 .667z"/></svg><svg fill="none" viewBox="0 0 16 16" id="cyrcle-gray" xmlns="http://www.w3.org/2000/svg"><g filter="url(#ajfilter0_d_1_8031)"><circle cx="8" cy="8" fill="#AFB0B2" r="2"/><path d="M8 10.5a2.5 2.5 0 100-5 2.5 2.5 0 000 5z" stroke="#fff"/></g><defs><filter id="ajfilter0_d_1_8031" x="0" y="0" width="16" height="16" filterUnits="userSpaceOnUse" color-interpolation-filters="sRGB"><feFlood flood-opacity="0" result="BackgroundImageFix"/><feColorMatrix in="SourceAlpha" values="0 0 0 0 0 0 0 0 0 0 0 0 0 0 0 0 0 0 127 0" result="hardAlpha"/><feOffset/><feGaussianBlur stdDeviation="2.5"/><feColorMatrix values="0 0 0 0 1 0 0 0 0 1 0 0 0 0 1 0 0 0 1 0"/><feBlend in2="BackgroundImageFix" result="effect1_dropShadow_1_8031"/><feBlend in="SourceGraphic" in2="effect1_dropShadow_1_8031" result="shape"/></filter></defs></svg><svg fill="none" viewBox="0 0 4 4" id="cyrcle-white" xmlns="http://www.w3.org/2000/svg"><circle cx="2" cy="2" r="2" fill="#fff"/></svg><svg fill="none" viewBox="0 0 14 14" id="cyrcle_gray" xmlns="http://www.w3.org/2000/svg"><g filter="url(#alfilter0_d_28_84)"><path d="M9 7a2 2 0 11-4 0 2 2 0 014 0z" fill="#AFB0B2"/></g><defs><filter id="alfilter0_d_28_84" x="0" y="0" width="14" height="14" filterUnits="userSpaceOnUse" color-interpolation-filters="sRGB"><feFlood flood-opacity="0" result="BackgroundImageFix"/><feColorMatrix in="SourceAlpha" values="0 0 0 0 0 0 0 0 0 0 0 0 0 0 0 0 0 0 127 0" result="hardAlpha"/><feOffset/><feGaussianBlur stdDeviation="2.5"/><feColorMatrix values="0 0 0 0 1 0 0 0 0 1 0 0 0 0 1 0 0 0 1 0"/><feBlend in2="BackgroundImageFix" result="effect1_dropShadow_28_84"/><feBlend in="SourceGraphic" in2="effect1_dropShadow_28_84" result="shape"/></filter></defs></svg><svg fill="none" viewBox="0 0 9 6" id="down-arrowhead" xmlns="http://www.w3.org/2000/svg"><path fill-rule="evenodd" clip-rule="evenodd" d="M4.5 3.651L7.576.576l.848.848L4.5 5.348.576 1.424l.848-.848L4.5 3.65z" fill="#313131"/></svg><svg fill="none" viewBox="0 0 12 16" id="geotag" xmlns="http://www.w3.org/2000/svg"><path d="M6.212.003C2.802-.107 0 2.495 0 5.72c0 3.66 3.687 6.315 5.753 10.134a.29.29 0 00.503 0c1.87-3.436 5.064-5.74 5.656-9.051.613-3.426-2.054-6.683-5.7-6.8zm-.208 8.713c-1.737 0-3.145-1.342-3.145-2.996 0-1.655 1.408-2.996 3.145-2.996S9.15 4.065 9.15 5.72c0 1.654-1.408 2.996-3.145 2.996z" fill="#fff"/></svg><svg fill="none" viewBox="0 0 12 16" id="geotag-grey" xmlns="http://www.w3.org/2000/svg"><path d="M6.212.003C2.802-.107 0 2.495 0 5.72c0 3.66 3.687 6.315 5.753 10.134a.29.29 0 00.503 0c1.87-3.436 5.064-5.74 5.656-9.051.613-3.426-2.054-6.683-5.7-6.8zm-.208 8.713c-1.737 0-3.145-1.342-3.145-2.996 0-1.655 1.408-2.996 3.145-2.996S9.15 4.065 9.15 5.72c0 1.654-1.408 2.996-3.145 2.996z" fill="#fff" opacity=".5"/></svg><svg fill="none" viewBox="0 0 11 12" id="hyperlink-black" xmlns="http://www.w3.org/2000/svg"><path d="M5.385 3.29l.774-.774a2.19 2.19 0 013.097 3.097l-.774.774M6.933 7.936L5.385 9.484a2.19 2.19 0 11-3.097-3.097L3.837 4.84M3.834 7.935l3.871-3.871" stroke="#080808" stroke-linecap="round" stroke-linejoin="round"/></svg><svg fill="none" viewBox="0 0 10 10" id="hyperlink-white" xmlns="http://www.w3.org/2000/svg"><path d="M4.643 2.357l.786-.786c.867-.867 2.204-.938 2.985-.157.781.781.71 2.118-.157 2.986l-.786.785m-1.57 1.572L4.328 8.328c-.868.868-2.205.938-2.986.157-.78-.78-.71-2.117.157-2.985l1.572-1.572M3 7l4-4" stroke="#fff" stroke-linecap="round" stroke-linejoin="round"/></svg><svg fill="none" viewBox="0 0 6 10" id="left-arrowhead" xmlns="http://www.w3.org/2000/svg"><path fill-rule="evenodd" clip-rule="evenodd" d="M1.53 5l3.735 3.735-.53.53L.47 5 4.735.735l.53.53L1.53 5z" fill="#fff"/></svg><svg fill="none" viewBox="0 0 12 19" id="left-arrowhead-blue" xmlns="http://www.w3.org/2000/svg"><path d="M9.415 18.22a.92.92 0 00.666.277c.533 0 .933-.4.933-.933a.974.974 0 00-.266-.666L3.283 9.597l7.465-7.301a.994.994 0 00.266-.667.92.92 0 00-.933-.943.92.92 0 00-.666.277L1.293 8.91a.9.9 0 00-.307.687c0 .256.102.492.297.687l8.132 7.936z" fill="#2E7CF6"/></svg><svg fill="none" viewBox="0 0 12 12" id="linkedin" xmlns="http://www.w3.org/2000/svg"><g clip-path="url(#atclip0_1_159)" fill="#fff"><path d="M11.578 11.035h.002V7.058c0-1.944-.418-3.442-2.692-3.442-1.093 0-1.826.6-2.125 1.168H6.73v-.987H4.575v7.236H6.82V7.451c0-.943.179-1.855 1.347-1.855 1.151 0 1.168 1.076 1.168 1.916v3.523h2.243zM.92 3.798h2.248v7.236H.921V3.798zM2.044.193C1.325.193.742.776.742 1.495c0 .718.583 1.314 1.302 1.314.719 0 1.302-.596 1.302-1.314 0-.719-.584-1.302-1.302-1.302z"/></g><defs><clipPath id="atclip0_1_159"><path fill="#fff" transform="translate(.742 .193)" d="M0 0h10.839v10.839H0z"/></clipPath></defs></svg><svg fill="none" viewBox="0 0 10 10" id="linkedin_1" xmlns="http://www.w3.org/2000/svg"><g clip-path="url(#auclip0_1_13540)" stroke="#fff" stroke-linecap="round" stroke-linejoin="round"><path d="M4.643 2.357l.786-.786c.867-.867 2.204-.938 2.985-.157.781.781.71 2.118-.157 2.986l-.786.785m-1.57 1.572L4.328 8.328c-.868.868-2.205.938-2.986.157-.78-.78-.71-2.117.157-2.985l1.572-1.572M3 7l4-4"/></g><defs><clipPath id="auclip0_1_13540"><path fill="#fff" d="M0 0h10v10H0z"/></clipPath></defs></svg><svg fill="none" viewBox="0 0 6 10" id="right-arrowhead" xmlns="http://www.w3.org/2000/svg"><path fill-rule="evenodd" clip-rule="evenodd" d="M4.47 5L.735 1.265l.53-.53L5.53 5 1.265 9.265l-.53-.53L4.47 5z" fill="#fff"/></svg><svg fill="none" viewBox="0 0 12 19" id="right-arrowhead-grey" xmlns="http://www.w3.org/2000/svg"><path d="M1.919 18.507a.92.92 0 00.666-.277l8.132-7.946a.957.957 0 00.297-.687.907.907 0 00-.297-.687L2.596.973a.93.93 0 00-.677-.287.92.92 0 00-.933.943c0 .246.102.493.266.667l7.465 7.3-7.465 7.302a.974.974 0 00-.266.666c0 .533.4.943.933.943z" fill="#CECECE"/></svg><svg fill="none" viewBox="0 0 14 9" id="select-arrow" xmlns="http://www.w3.org/2000/svg"><path d="M7.576 8.488l5.433-5.922a1.054 1.054 0 000-1.455c-.388-.415-.97-.415-1.358 0L6.8 6.202l-4.85-5.09C1.56.695.98.695.59 1.111a.976.976 0 00-.291.727c0 .311.097.52.291.727l5.433 5.922c.485.416 1.067.416 1.552 0-.097 0-.097 0 0 0z" fill="#AAA"/></svg><svg fill="none" viewBox="0 0 24 23" id="send-request" xmlns="http://www.w3.org/2000/svg"><path d="M3.96 17.626h1.898v1.764c0 2.112 1.077 3.178 3.22 3.178h10.95c2.144 0 3.22-1.066 3.22-3.178V8.49c0-2.102-1.076-3.169-3.22-3.169h-1.896v-1.66c0-2.113-1.087-3.18-3.22-3.18H3.961C1.808.481.74 1.548.74 3.661v10.796c0 2.113 1.067 3.169 3.22 3.169zm.021-1.65c-1.025 0-1.589-.544-1.589-1.61V3.751c0-1.066.564-1.62 1.59-1.62h10.9c1.014 0 1.599.554 1.599 1.62v1.57H9.078c-2.143 0-3.22 1.055-3.22 3.168v7.485H3.98zm5.127 4.941c-1.025 0-1.6-.553-1.6-1.62V8.582c0-1.066.575-1.61 1.6-1.61h10.9c1.015 0 1.59.544 1.59 1.61v10.726c0 1.056-.575 1.61-1.59 1.61h-10.9z" fill="#2E7CF6"/></svg><svg fill="none" viewBox="0 0 16 16" id="size" xmlns="http://www.w3.org/2000/svg"><g opacity=".5" fill="#fff"><path d="M1.084 9.275l7.363-7.227 1.228 1.205-7.363 7.226-1.228-1.204zM0 11.546l1.806-.76L.774 9.772 0 11.546zM11.515 1.446a.84.84 0 000-1.205.901.901 0 00-1.227 0l-.614.602 1.227 1.205.614-.602zM8.854 1.647l.41-.402L10.49 2.45l-.41.401-1.227-1.204zM14.553 4.076H16V1.07L.79 16H16v-1.136h-1.447a.287.287 0 01-.289-.284c0-.156.13-.284.29-.284h1.445v-1.135h-.867a.287.287 0 01-.29-.284c0-.157.13-.284.29-.284h.867v-1.136h-1.446a.287.287 0 01-.289-.284c0-.156.13-.283.29-.283h1.445V9.754h-.867a.287.287 0 01-.29-.284c0-.157.13-.284.29-.284h.867V8.05h-1.446a.287.287 0 01-.289-.283c0-.157.13-.284.29-.284h1.445V6.347h-.867a.287.287 0 01-.29-.284c0-.157.13-.284.29-.284h.867V4.644h-1.446a.287.287 0 01-.289-.284c0-.157.13-.284.29-.284zm-.867 9.369c0 .157-.13.284-.29.284H7.074a.29.29 0 01-.267-.176.28.28 0 01.063-.309l6.322-6.205a.293.293 0 01.315-.062.284.284 0 01.179.262v6.206z"/></g></svg><svg fill="none" viewBox="0 0 52 23" id="slogan" xmlns="http://www.w3.org/2000/svg"><path fill-rule="evenodd" clip-rule="evenodd" d="M3.231 2.837h1.474v1.368H3.231v3.687c0 .346.057.576.17.691.114.116.34.173.68.173.114 0 .223-.005.327-.014a2.78 2.78 0 00.297-.043v1.584c-.17.029-.359.048-.567.058-.207.01-.41.014-.609.014-.312 0-.607-.022-.886-.065a2.067 2.067 0 01-.737-.252 1.325 1.325 0 01-.503-.533c-.123-.23-.184-.533-.184-.907V4.205H0V2.837h1.219V.605H3.23v2.232zM5.67 0h2.013v3.874h.042c.255-.432.581-.746.978-.943a2.605 2.605 0 011.162-.295c.539 0 .98.074 1.325.223.345.149.617.355.815.62.199.263.338.585.418.964.08.38.12.8.12 1.26v4.58H10.53V6.078c0-.615-.094-1.073-.283-1.376-.189-.302-.524-.453-1.006-.453-.548 0-.945.165-1.19.496-.247.332-.37.877-.37 1.635v3.903H5.67V0zm13.337 5.76c-.095-.518-.262-.911-.503-1.18-.241-.269-.607-.403-1.099-.403-.32 0-.588.055-.8.165a1.512 1.512 0 00-.78.929 2.39 2.39 0 00-.092.49h3.274zm-3.274 1.297c.028.663.194 1.143.496 1.44.302.298.737.447 1.304.447.406 0 .756-.104 1.049-.31.293-.206.472-.425.538-.655h1.772c-.284.893-.718 1.531-1.304 1.915-.586.384-1.294.576-2.126.576a4.127 4.127 0 01-1.559-.28 3.24 3.24 0 01-1.176-.8 3.609 3.609 0 01-.744-1.238 4.6 4.6 0 01-.262-1.585c0-.557.09-1.075.269-1.555.18-.48.434-.895.765-1.246a3.6 3.6 0 011.184-.828 3.742 3.742 0 011.523-.302c.624 0 1.167.122 1.63.367.463.245.843.574 1.14.986.298.413.513.884.646 1.412.132.528.18 1.08.141 1.656h-5.286zm10.856-2.852h-1.204V2.837h1.204v-.576c0-.662.203-1.205.61-1.627C27.604.21 28.218 0 29.04 0c.18 0 .36.007.539.022.18.014.354.026.524.036v1.526a6.086 6.086 0 00-.737-.043c-.274 0-.47.065-.588.194-.118.13-.177.348-.177.656v.446h1.389v1.368H28.6v6.078h-2.012V4.205zm4.62-1.368h2.013v7.446H31.21V2.837zm2.013-1.152H31.21V0h2.012v1.685zm1.588 1.152h1.913V4.22h.028c.095-.23.222-.444.383-.641a2.52 2.52 0 01.553-.504c.208-.14.43-.247.666-.324.236-.077.482-.115.737-.115.132 0 .279.024.44.072v1.9a3.807 3.807 0 00-.724-.071c-.368 0-.68.062-.935.187s-.46.295-.617.511a2.065 2.065 0 00-.333.756c-.066.288-.099.6-.099.936v3.356H34.81V2.837zm7.072 5.027c0 .22.045.41.134.568.09.159.206.288.348.39.141.1.304.175.489.222.184.049.375.073.574.073.141 0 .29-.017.446-.05.156-.034.298-.087.425-.16a.971.971 0 00.319-.287.765.765 0 00.128-.454c0-.307-.201-.538-.603-.691-.401-.154-.961-.308-1.68-.461a9.812 9.812 0 01-.857-.238 2.91 2.91 0 01-.744-.36 1.738 1.738 0 01-.524-.562c-.132-.225-.199-.501-.199-.828 0-.48.093-.873.277-1.18.184-.308.427-.55.73-.728a3.167 3.167 0 011.02-.374 6.196 6.196 0 011.162-.108c.397 0 .782.038 1.155.115.374.077.707.206 1 .389.292.182.536.425.73.727.193.302.309.684.347 1.145h-1.914c-.028-.394-.174-.66-.439-.8a1.982 1.982 0 00-.935-.208 3.42 3.42 0 00-.369.021 1.214 1.214 0 00-.361.094.746.746 0 00-.277.209.558.558 0 00-.113.367c0 .183.066.331.198.447.133.115.305.208.518.28.212.072.456.137.73.195.274.057.552.12.836.187.293.067.578.149.857.245s.527.223.744.382c.218.158.392.355.525.59.132.235.198.526.198.871 0 .49-.097.9-.29 1.232a2.346 2.346 0 01-.759.799 3.081 3.081 0 01-1.07.425 6.14 6.14 0 01-2.473-.007 3.263 3.263 0 01-1.084-.432 2.453 2.453 0 01-.78-.8c-.203-.33-.314-.746-.333-1.245h1.914zm8.603-5.027h1.474v1.368h-1.474v3.687c0 .346.056.576.17.691.113.116.34.173.68.173.113 0 .222-.005.326-.014a2.78 2.78 0 00.298-.043v1.584c-.17.029-.36.048-.567.058-.208.01-.411.014-.61.014-.312 0-.607-.022-.885-.065a2.067 2.067 0 01-.738-.252 1.326 1.326 0 01-.503-.533c-.122-.23-.184-.533-.184-.907V4.205h-1.219V2.837h1.22V.605h2.012v2.232zM3.23 15.367h1.474v1.368H3.231v3.687c0 .345.057.576.17.691.114.115.34.173.68.173.114 0 .223-.005.327-.014.104-.01.203-.024.297-.044v1.585c-.17.028-.359.048-.567.057-.207.01-.41.015-.609.015-.312 0-.607-.022-.886-.065a2.067 2.067 0 01-.737-.252 1.325 1.325 0 01-.503-.533c-.123-.23-.184-.533-.184-.907v-4.393H0v-1.368h1.219v-2.233H3.23v2.233zM5.67 12.53h2.013v3.874h.042c.255-.432.581-.747.978-.944a2.606 2.606 0 011.162-.295c.539 0 .98.075 1.325.224.345.148.617.355.815.619.199.264.338.585.418.965.08.379.12.8.12 1.26v4.58H10.53v-4.206c0-.614-.094-1.073-.283-1.375-.189-.302-.524-.454-1.006-.454-.548 0-.945.166-1.19.497-.247.331-.37.876-.37 1.635v3.903H5.67V12.53zm13.337 5.76c-.095-.518-.262-.912-.503-1.18-.241-.27-.607-.404-1.099-.404-.32 0-.588.056-.8.166a1.512 1.512 0 00-.78.929 2.39 2.39 0 00-.092.49h3.274zm-3.274 1.297c.028.662.194 1.142.496 1.44.302.298.737.446 1.304.446.406 0 .756-.103 1.049-.31.293-.206.472-.424.538-.654h1.772c-.284.892-.718 1.53-1.304 1.915-.586.384-1.294.576-2.126.576a4.127 4.127 0 01-1.559-.28 3.24 3.24 0 01-1.176-.8 3.61 3.61 0 01-.744-1.239 4.6 4.6 0 01-.262-1.584c0-.557.09-1.075.269-1.555.18-.48.434-.896.765-1.246.33-.35.725-.627 1.184-.828a3.741 3.741 0 011.523-.303c.624 0 1.167.123 1.63.368.463.244.843.573 1.14.986.298.413.513.883.646 1.412.132.528.18 1.08.141 1.656h-5.286zm10.474-7.057h2.012v10.283h-2.012V12.53zm3.302 5.127c.028-.48.146-.879.354-1.195a2.43 2.43 0 01.794-.764 3.427 3.427 0 011.084-.41 6.07 6.07 0 011.212-.123c.368 0 .742.027 1.12.08.377.052.722.155 1.034.31.312.153.567.366.765.64.199.274.298.636.298 1.087v3.875c0 .336.019.657.057.965.038.307.104.537.198.69h-2.04a2.967 2.967 0 01-.142-.72c-.322.337-.7.572-1.134.706a4.484 4.484 0 01-1.332.202c-.35 0-.676-.043-.978-.13a2.226 2.226 0 01-.794-.403 1.873 1.873 0 01-.532-.691c-.127-.279-.19-.61-.19-.994 0-.422.072-.77.219-1.044.146-.274.335-.492.567-.655.231-.163.496-.286.793-.368.298-.081.598-.146.9-.194.303-.048.6-.086.893-.115.293-.029.553-.072.78-.13.227-.057.406-.141.538-.252.133-.11.194-.271.185-.482 0-.221-.036-.396-.107-.526a.79.79 0 00-.283-.302 1.105 1.105 0 00-.411-.144 3.31 3.31 0 00-.503-.037c-.397 0-.709.087-.936.26-.227.173-.359.46-.397.864h-2.012zm4.649 1.512a.898.898 0 01-.32.18 3.18 3.18 0 01-.41.108c-.147.029-.3.053-.461.072-.16.02-.321.043-.482.072a3.59 3.59 0 00-.446.115 1.312 1.312 0 00-.383.195.922.922 0 00-.262.31 1.01 1.01 0 00-.1.474c0 .183.034.337.1.461a.77.77 0 00.27.296c.113.072.245.122.396.15.151.03.307.044.468.044.396 0 .704-.067.92-.201.218-.135.379-.296.483-.483a1.56 1.56 0 00.191-.569 3.95 3.95 0 00.035-.46v-.764zm4.918 1.224c0 .221.044.41.134.57.09.157.206.287.347.388.142.1.305.175.49.223.184.048.375.072.573.072.142 0 .29-.017.447-.05.156-.034.297-.087.425-.159a.971.971 0 00.319-.288.766.766 0 00.127-.453c0-.308-.2-.538-.602-.692-.401-.153-.961-.307-1.68-.46a9.806 9.806 0 01-.857-.238 2.909 2.909 0 01-.744-.36 1.74 1.74 0 01-.524-.562c-.133-.225-.199-.502-.199-.828 0-.48.092-.874.277-1.18.184-.308.427-.55.73-.728a3.168 3.168 0 011.02-.375 6.196 6.196 0 011.162-.108c.397 0 .782.039 1.155.116.373.076.707.206 1 .388.292.183.536.425.73.728.193.302.309.684.347 1.145h-1.914c-.028-.394-.175-.66-.44-.8a1.983 1.983 0 00-.934-.209 3.42 3.42 0 00-.369.022 1.21 1.21 0 00-.361.094.744.744 0 00-.277.209.558.558 0 00-.113.367c0 .182.066.331.198.446.133.116.305.21.518.281.212.072.456.137.73.194.273.058.552.12.836.188.293.067.578.149.857.245a2.8 2.8 0 01.744.381c.218.159.392.355.525.59.132.236.198.526.198.872 0 .49-.097.9-.29 1.231a2.348 2.348 0 01-.759.8 3.082 3.082 0 01-1.07.425 6.142 6.142 0 01-2.473-.008 3.262 3.262 0 01-1.084-.432 2.454 2.454 0 01-.78-.799c-.203-.331-.314-.747-.333-1.246h1.914zm8.39-5.026h1.474v1.368h-1.474v3.687c0 .345.056.576.17.691.113.115.34.173.68.173.114 0 .222-.005.326-.014.104-.01.203-.024.298-.044v1.585c-.17.028-.36.048-.567.057-.208.01-.411.015-.61.015-.311 0-.607-.022-.885-.065a2.067 2.067 0 01-.737-.252 1.325 1.325 0 01-.504-.533c-.122-.23-.184-.533-.184-.907v-4.393h-1.219v-1.368h1.22v-2.233h2.012v2.233zm2.31 5.228H52v2.218h-2.225v-2.218z" fill="#B6B6B6"/></svg><svg fill="none" viewBox="0 0 11 10" id="twiter" xmlns="http://www.w3.org/2000/svg"><path fill-rule="evenodd" clip-rule="evenodd" d="M.742 8.292c.914.61 1.999.966 3.165.966 3.799 0 5.875-3.277 5.875-6.118 0-.093-.002-.185-.006-.277a4.29 4.29 0 001.03-1.113c-.37.171-.767.286-1.185.337.426-.264.753-.687.908-1.188a4.05 4.05 0 01-1.312.52A2.026 2.026 0 007.71.743c-1.14 0-2.065.961-2.065 2.148 0 .17.018.333.054.49-1.716-.089-3.239-.945-4.256-2.245a2.21 2.21 0 00-.28 1.08c0 .746.364 1.405.919 1.79a1.982 1.982 0 01-.936-.269v.027c0 1.041.713 1.911 1.656 2.109a1.97 1.97 0 01-.932.036c.262.855 1.025 1.477 1.929 1.493a4.034 4.034 0 01-3.057.89z" fill="#fff"/></svg></svg>